<?xml version="1.0" encoding="utf-8"?>
<!-- Generator: Adobe Illustrator 25.1.0, SVG Export Plug-In . SVG Version: 6.00 Build 0)  -->
<svg version="1.0" id="Camada_1" xmlns="http://www.w3.org/2000/svg" xmlns:xlink="http://www.w3.org/1999/xlink" x="0px" y="0px"
	 viewBox="0 0 457.4 242.4" style="enable-background:new 0 0 457.4 242.4;" xml:space="preserve">
<style type="text/css">
	.st0{fill:#579CC5;}
	.st1{fill:#8E5FA4;}
	.st2{fill:#1F3665;}
	.st3{fill:#BBA149;}
	.st4{fill:#3CBEE6;}
</style>
<g>
	<path class="st0" d="M424.7,212.2h32.6l-77.1-89.1l52.1-43l18.9-14.6H450l1.2-1h-32.1l-79.9,63.6V6.9h-26.6v142.4l-22.4,17.8
		c-13.8,9.3-28.6,18.5-32.2,20.3c-6.8,3.5-14.4,5.3-22.7,5.3c-9.6,0-18.2-2.1-25.9-6.4c-7.7-4.2-13.7-10.3-18-18.1
		c-4.3-7.8-6.5-16.9-6.5-27.3c0-10.1,2.2-19.1,6.5-27c4.3-7.8,10.3-13.9,18-18.1c7.7-4.2,16.3-6.4,25.9-6.4c8.3,0,15.9,1.8,22.7,5.3
		c6.8,3.5,12.5,8.8,17.2,15.8l20.2-13c-5.7-10.1-13.8-17.9-24.2-23.2c-10.4-5.3-22.3-8-35.6-8c-14.9,0-28.3,3.2-40,9.5
		c-11.7,6.4-20.9,15.2-27.5,26.6c-6.6,11.3-10,24.2-10,38.6c0,7,0.8,13.7,2.4,20c-15.7,12.1-50.9,28.8-73.5,30.8
		c-14.3,1.3-33.9-2.9-43.6-10.8c-9.7-7.8-15.4-18.2-17-31.1h119c0.4-3.3,0.6-6,0.6-8c0-14.8-3.1-27.9-9.3-39.3
		c-6.2-11.4-14.8-20.3-25.7-26.7c-11-6.4-23.5-9.5-37.5-9.5c-14,0-26.6,3.2-37.8,9.5C24.7,82.1,15.9,91,9.5,102.5
		C3.2,113.9,0,126.7,0,140.9c0,14.4,3.3,27.3,9.8,38.7c6.5,11.4,15.8,20.3,27.8,26.7c12,6.4,25.7,9.5,41.2,9.5
		c12.2,0,28-2.1,37.9-6.2c14.7-6,38.5-18.6,52.9-28c6.5,10.3,15.2,18.5,26.1,24.5c11.7,6.5,25,9.7,40,9.7c13.3,0,25.1-2.7,35.6-8.2
		c5.4-2.8,18.8-11.5,31.2-20.6l0.1,0.1l2.8-2.3c2.5-1.9,5-3.8,7.3-5.6v32.9h26.6v-55l0.9-0.9l22.8-18.8L424.7,212.2z M41.6,100.3
		c8.6-7.7,19.2-11.6,32-11.6c12.7,0,23.4,3.9,32,11.8c8.6,7.8,13.6,17.9,15.1,30.3H26.6C28,118.1,33.1,108,41.6,100.3"/>
	<path class="st1" d="M141.5,241.5c-1.2-0.6-2.1-1.5-2.8-2.6s-1-2.4-1-3.8c0-1.4,0.3-2.7,1-3.8c0.7-1.1,1.6-2,2.8-2.6
		c1.2-0.6,2.5-0.9,3.9-0.9c1.2,0,2.3,0.2,3.3,0.6c1,0.4,1.8,1.1,2.5,1.9l-2.1,1.9c-1-1.1-2.1-1.7-3.6-1.7c-0.9,0-1.7,0.2-2.3,0.6
		c-0.7,0.4-1.2,0.9-1.6,1.6c-0.4,0.7-0.6,1.5-0.6,2.3s0.2,1.7,0.6,2.3c0.4,0.7,0.9,1.2,1.6,1.6c0.7,0.4,1.5,0.6,2.3,0.6
		c1.4,0,2.6-0.6,3.6-1.7l2.1,1.9c-0.7,0.8-1.5,1.4-2.5,1.9c-1,0.4-2.1,0.6-3.3,0.6C143.9,242.4,142.6,242.1,141.5,241.5"/>
	<path class="st1" d="M170.2,241.5c-1.2-0.6-2.1-1.5-2.8-2.6c-0.7-1.1-1-2.4-1-3.8s0.3-2.6,1-3.8c0.7-1.1,1.6-2,2.8-2.6
		c1.2-0.6,2.5-1,4-1s2.8,0.3,4,1c1.2,0.6,2.1,1.5,2.8,2.6c0.7,1.1,1,2.4,1,3.8s-0.3,2.6-1,3.8c-0.7,1.1-1.6,2-2.8,2.6
		c-1.2,0.6-2.5,1-4,1S171.3,242.1,170.2,241.5 M176.4,239.1c0.7-0.4,1.2-0.9,1.6-1.6c0.4-0.7,0.6-1.5,0.6-2.3c0-0.9-0.2-1.7-0.6-2.3
		c-0.4-0.7-0.9-1.2-1.6-1.6c-0.7-0.4-1.4-0.6-2.3-0.6c-0.8,0-1.6,0.2-2.3,0.6c-0.7,0.4-1.2,0.9-1.6,1.6c-0.4,0.7-0.6,1.5-0.6,2.3
		c0,0.9,0.2,1.7,0.6,2.3c0.4,0.7,0.9,1.2,1.6,1.6c0.7,0.4,1.4,0.6,2.3,0.6C175,239.6,175.7,239.4,176.4,239.1"/>
	<polygon class="st1" points="211.5,228 211.5,242.2 208.8,242.2 201.8,233.6 201.8,242.2 198.5,242.2 198.5,228 201.2,228 
		208.3,236.6 208.3,228 	"/>
	<path class="st1" d="M230.4,242c-1-0.3-1.9-0.7-2.5-1.2l1.1-2.5c0.6,0.4,1.3,0.8,2.2,1.1c0.8,0.3,1.7,0.4,2.5,0.4
		c0.9,0,1.6-0.1,2.1-0.4c0.4-0.3,0.7-0.6,0.7-1.1c0-0.3-0.1-0.6-0.4-0.8c-0.3-0.2-0.6-0.4-1-0.5c-0.4-0.1-1-0.3-1.7-0.4
		c-1.1-0.3-2-0.5-2.7-0.8c-0.7-0.3-1.3-0.7-1.8-1.2c-0.5-0.6-0.7-1.3-0.7-2.3c0-0.8,0.2-1.6,0.7-2.2c0.4-0.7,1.1-1.2,2-1.6
		c0.9-0.4,2-0.6,3.3-0.6c0.9,0,1.8,0.1,2.7,0.3c0.9,0.2,1.6,0.5,2.3,0.9l-1,2.5c-1.3-0.7-2.6-1.1-3.9-1.1c-0.9,0-1.6,0.1-2,0.4
		c-0.4,0.3-0.7,0.7-0.7,1.2c0,0.5,0.3,0.8,0.8,1.1c0.5,0.2,1.3,0.5,2.3,0.7c1.1,0.3,2,0.5,2.7,0.8c0.7,0.3,1.3,0.7,1.8,1.2
		c0.5,0.6,0.7,1.3,0.7,2.2c0,0.8-0.2,1.5-0.7,2.2c-0.5,0.7-1.1,1.2-2,1.6c-0.9,0.4-2,0.6-3.3,0.6C232.6,242.4,231.5,242.3,230.4,242
		"/>
	<path class="st1" d="M257.7,240.7c-1.1-1.1-1.7-2.7-1.7-4.8V228h3.3v7.8c0,2.5,1.1,3.8,3.2,3.8c1,0,1.8-0.3,2.3-0.9
		c0.5-0.6,0.8-1.6,0.8-2.9V228h3.2v7.9c0,2.1-0.6,3.7-1.7,4.8c-1.1,1.1-2.7,1.7-4.7,1.7C260.4,242.4,258.8,241.9,257.7,240.7"/>
	<polygon class="st1" points="286.2,228 289.5,228 289.5,239.5 296.6,239.5 296.6,242.2 286.2,242.2 	"/>
	<polygon class="st1" points="314.2,230.7 309.7,230.7 309.7,228 322,228 322,230.7 317.5,230.7 317.5,242.2 314.2,242.2 	"/>
	<rect x="338" y="228" class="st1" width="3.3" height="14.2"/>
	<polygon class="st1" points="371.8,228 371.8,242.2 369.1,242.2 362,233.6 362,242.2 358.8,242.2 358.8,228 361.5,228 368.5,236.6 
		368.5,228 	"/>
	<path class="st1" d="M398.8,234.9h3v5.7c-0.8,0.6-1.7,1-2.7,1.3c-1,0.3-2,0.5-3.1,0.5c-1.5,0-2.8-0.3-4-0.9
		c-1.2-0.6-2.1-1.5-2.8-2.6c-0.7-1.1-1-2.4-1-3.8s0.3-2.7,1-3.8c0.7-1.1,1.6-2,2.8-2.6c1.2-0.6,2.5-0.9,4-0.9c1.2,0,2.4,0.2,3.4,0.6
		c1,0.4,1.9,1,2.6,1.8l-2.1,1.9c-1-1.1-2.2-1.6-3.7-1.6c-0.9,0-1.7,0.2-2.4,0.6c-0.7,0.4-1.2,0.9-1.6,1.6s-0.6,1.5-0.6,2.4
		c0,0.9,0.2,1.7,0.6,2.3s0.9,1.2,1.6,1.6c0.7,0.4,1.5,0.6,2.4,0.6c0.9,0,1.8-0.2,2.6-0.6V234.9z"/>
	<path class="st2" d="M144.7,68.3c1.2,4.8,6.1,7.7,10.8,6.2c0.1,0,0.1,0,0.2-0.1c4.7-1.5,7.1-6.7,5.3-11.3
		c-1.7-4.3-1.6-9.2,0.7-13.6c2.3-4.4,6.3-7.3,10.7-8.4c4.8-1.2,7.7-6.1,6.2-10.8c0-0.1,0-0.1-0.1-0.2c-1.5-4.7-6.7-7.1-11.3-5.3
		c-4.3,1.7-9.2,1.6-13.6-0.7c-4.4-2.3-7.3-6.3-8.4-10.7c-1.2-4.8-6.1-7.7-10.8-6.2c-0.1,0-0.1,0-0.2,0.1c-4.7,1.5-7.1,6.7-5.3,11.3
		c1.7,4.3,1.6,9.2-0.7,13.6c-2.3,4.4-6.3,7.3-10.7,8.4c-4.8,1.2-7.7,6.1-6.2,10.8c0,0.1,0,0.1,0.1,0.2c1.5,4.7,6.7,7.1,11.3,5.3
		c4.3-1.7,9.2-1.6,13.6,0.7C140.7,59.9,143.6,63.9,144.7,68.3"/>
	<path class="st1" d="M165.6,1.1c-4.7-2.4-10.5-0.6-12.9,4.1c-2.4,4.7-0.6,10.5,4.1,12.9c4.7,2.4,10.5,0.6,12.9-4.1
		C172.1,9.3,170.3,3.5,165.6,1.1"/>
	<path class="st3" d="M167.8,52.7c-2.4,4.7-0.6,10.5,4.1,12.9c4.7,2.4,10.5,0.6,12.9-4.1c2.4-4.7,0.6-10.5-4.1-12.9
		C176,46.2,170.2,48,167.8,52.7"/>
	<path class="st4" d="M109.3,33.1c4.7,2.4,10.5,0.6,12.9-4.1c2.4-4.7,0.6-10.5-4.1-12.9c-4.7-2.4-10.5-0.6-12.9,4.1
		C102.8,24.9,104.6,30.7,109.3,33.1"/>
</g>
</svg>
