<?xml version="1.0" encoding="utf-8"?>
<!-- Generator: Adobe Illustrator 25.1.0, SVG Export Plug-In . SVG Version: 6.00 Build 0)  -->
<svg version="1.1" id="Camada_1" xmlns="http://www.w3.org/2000/svg" xmlns:xlink="http://www.w3.org/1999/xlink" x="0px" y="0px"
	 viewBox="0 0 83.7 83.7" style="enable-background:new 0 0 83.7 83.7;" xml:space="preserve">
<style type="text/css">
	.st0{fill:#FFFFFF;}
</style>
<g>
	<path class="st0" d="M41.6,69.2c1,4.2,5.5,6.8,9.6,5.5c0.1,0,0.1-0.1,0.2-0.1c4.2-1.3,6.3-6,4.7-10c-1.5-3.8-1.4-8.1,0.6-12
		s5.5-6.5,9.5-7.4c4.2-1,6.8-5.5,5.5-9.6c0-0.1,0-0.1-0.1-0.2c-1.3-4.2-6-6.3-10-4.7c-3.8,1.5-8.1,1.4-12-0.6s-6.5-5.5-7.4-9.5
		c-1-4.2-5.5-6.8-9.6-5.5c-0.1,0-0.1,0-0.2,0.1c-4.2,1.3-6.3,6-4.7,10c1.5,3.8,1.4,8.1-0.6,12s-5.5,6.5-9.5,7.4
		c-4.2,1-6.8,5.5-5.5,9.6c0,0.1,0,0.1,0.1,0.2c1.3,4.2,6,6.3,10,4.7c3.8-1.5,8.1-1.4,12,0.6C38.1,61.8,40.7,65.3,41.6,69.2
		L41.6,69.2z"/>
	<path class="st0" d="M60.2,9.6c-4.2-2.2-9.3-0.5-11.4,3.6s-0.5,9.3,3.6,11.4s9.3,0.5,11.4-3.6C66,16.9,64.3,11.8,60.2,9.6L60.2,9.6
		z"/>
	<path class="st0" d="M62.1,55.5c-2.2,4.2-0.5,9.3,3.6,11.4c4.2,2.2,9.3,0.5,11.4-3.6c2.2-4.2,0.5-9.3-3.6-11.4
		C69.4,49.7,64.2,51.3,62.1,55.5L62.1,55.5z"/>
	<path class="st0" d="M10.2,38c4.2,2.2,9.3,0.5,11.4-3.6c2.2-4.2,0.5-9.3-3.6-11.4c-4.2-2.2-9.3-0.5-11.4,3.6S6,35.9,10.2,38
		L10.2,38z"/>
</g>
</svg>
